# xmcd
#
# Track frame offsets: 
#        150
#        12678
#        27016
#        39866
#        51140
#        64244
#        78216
#        92441
#        106701
#        117989
#        131108
#        143135
#        156022
#        169326
#        182594
#
# Disc length: 2626 seconds
#
# Revision: 1
# Processed by: cddbd v1.5.1PL2 Copyright (c) Steve Scherf et al.
# Submitted via: ExactAudioCopy v0.95b3
#
DISCID=bb0a400f
DTITLE=Various Artist - 15 Classic Blues Songs from the 1920's: Vol. 1
DYEAR=2005
DGENRE=Blues
TTITLE0=Blind Blake - He's In The Jailhouse Now
TTITLE1=Ramblin' Thomas - No Job Blues
TTITLE2=Skip James - 22-20 Blues
TTITLE3=Blind Lemon Jefferson - Rising High Water Blues
TTITLE4=Charley Patton - Down The Dirt Road Blues
TTITLE5=Blind Willie McTell - Death Cell Blues
TTITLE6=Bumble Bee Slim - Rough Rugged Road
TTITLE7=Son House - Dry Spell Blues
TTITLE8=Blind Blake - Bad Feeling Blues
TTITLE9=The Beale Street Sheiks - Beale Town Bound
TTITLE10=Blind Lemon Jefferson - Black Snake Dream Blues
TTITLE11=Ma Rainey - Dead Drunk Blues
TTITLE12=Tommy Johnson - I Want Someone To Love Me
TTITLE13=Blind Joe Reynolds - Cold Woman Blues
TTITLE14=King Solomon Hill - Times Has Done Got Hard
EXTD=Included with Blues Images' 2004 Calendar
EXTT0=1927, Chicago
EXTT1=1928, Chicago
EXTT2=1931, Grafton, WI
EXTT3=1927, Chicago
EXTT4=1929, Richmond IN
EXTT5=1933, NY
EXTT6=1931, Grafton WI
EXTT7=1930, Grafton WI
EXTT8=1927, Chicago
EXTT9=1927, Chicago
EXTT10=1926 Chicago
EXTT11=1927, Chicago
EXTT12=1929 Grafton WI -- first "test" recording of T Johnson
EXTT13=1929 Grafton WI
EXTT14=1932 Grafon WI
PLAYORDER=
